<?xml version="1.0" encoding="UTF-8"?>
<svg id="Camada_1" xmlns="http://www.w3.org/2000/svg" version="1.1" viewBox="0 0 1124.19 477.65">
  <!-- Generator: Adobe Illustrator 29.8.2, SVG Export Plug-In . SVG Version: 2.1.1 Build 3)  -->
  <defs>
    <style>
      .st0 {
        fill: #c6a448;
      }

      .st1 {
        fill: #fff;
      }

      .st2 {
        fill: #131313;
      }
    </style>
  </defs>
  <g>
    <path class="st0" d="M336.57,101.3v50.54l-7.13-.02v-50.54l7.13.02Z"/>
    <path class="st0" d="M364.6,151.84v-50.54l9.39.02,23.5,41.54h.07s0-41.56,0-41.56h6.24v50.54h-8.72c-6.11-10.85-21.08-37.3-23.96-43.05h-.06v43.05h-6.46Z"/>
    <path class="st0" d="M435.12,137.77c1.25,5.92,5.1,9.02,11.8,9.04,7.13.02,9.99-3.43,10-8.04.01-4.92-2.34-7.58-11.71-9.99-11.65-3-15.44-7.3-15.43-14.4.02-7.8,5.48-13.93,16.34-13.9,11.7.03,16.46,7.09,17.1,13.92l-7.24-.02c-.78-4.26-3.26-7.93-10.11-7.94-5.54-.01-8.7,2.59-8.7,7.21,0,4.54,2.57,6.35,10.87,8.48,13.75,3.55,16.28,9.18,16.27,15.84-.02,8.41-5.95,14.82-17.88,14.79-12.11-.03-17.53-6.91-18.54-15l7.24.02Z"/>
    <path class="st0" d="M498.41,108.4h-15.25v-7.1h37.89v7.1h-15.47v43.44h-7.17v-43.44Z"/>
    <path class="st0" d="M588.03,108.4h-15.25v-7.1h37.89v7.1h-15.47v43.44h-7.17v-43.44Z"/>
    <path class="st0" d="M709.16,108.4h-15.25v-7.1h37.89v7.1h-15.47v43.44h-7.17v-43.44Z"/>
    <path class="st0" d="M550.1,101.3v50.54h-7.13v-50.54h7.13Z"/>
    <path class="st0" d="M640.62,101.3l-.06,30.93c-.02,11.6,5.92,14.79,11.89,14.81,6.97.02,11.8-3.46,11.82-14.75l.06-30.99,7.17.02-.06,30.6c-.03,16.68-8.86,21.34-19.15,21.31-10.18-.02-18.98-5.07-18.95-20.98l.06-30.97,7.21.02Z"/>
    <path class="st0" d="M794.75,127.21c-.03,14.03-7.59,26.42-22.82,26.39-14.33-.03-22.2-11.63-22.17-26.23.03-14.61,8.24-26.15,22.86-26.12,13.64.03,22.16,10.75,22.13,25.96ZM757.21,127.16c-.02,10.8,5.05,20.05,15.04,20.07,10.8.03,15.04-9.41,15.06-19.94.02-10.71-4.75-19.67-15-19.69-10.48-.02-15.08,8.88-15.1,19.56Z"/>
  </g>
  <g>
    <path class="st2" d="M969.06,252.29s28.95-8.02,34.4-8.66l-.87-5.99-.12-.85c-7.67,2.14-39.41,15.9-39.41,15.9l6-.41Z"/>
    <path class="st2" d="M960.51,338.51l8.2-13.03-7.73,5.7s4.41-11.1,10.43-13.54c-2.46.44-4.92.89-7.39,1.33,2.71-3.71,10.26-13.64,10.26-13.64,0,0,8.16-5.78,17.76-9.03-8.04-.6-10.39,1.72-13.27,2.47,1.85-4.79,5.85-12.02,9.38-15.74,1.53-1.6,3.32-2.94,5.1-4.25,4.55-3.32,9.19-6.51,13.92-9.57l-1.92-13.22-.11-.72c-4.68,1.18-9.37,2.28-14.09,3.34.83.32,1.66.63,2.49.95-13.77,3.88-42.6,14.74-42.6,14.74l18-2.69-26.83,13.9,15.11-3.01-27.73,26.68,6.98-.48-7.67,4.71,10.64-3.3s-7.14,5.32-10.72,7.99c1.5-.03,3.01-.06,4.51-.09-2.78,4.74-4.8,9.93-5.83,12.72-1.71-4.15-2.9-7.8-3.16-12.28-.59.74-1,.69-1.59,1.43,2.81-15.35,12.95-44.51,12.95-44.51l26.39-10.2-19.24-1.02,10.34-19.09s-6.38,3.44-8.57,4.46c2.78-5.66,8.87-13.23,14.21-16.59,2.69-1.69,5.79-2.61,8.71-3.87,4.73-2.03,9.05-5.02,12.64-8.72-3.53,2.01-7.55,3.14-11.6,3.25,8.64-6.37,15.68-10.62,30.19-12.86l-1.16-8.01-22.73-.05h-2.03s0,0,0,0c-1.89,1.01-3.79,2.02-5.68,3.03,1.21.22,2.42.44,3.63.67-2.75,1.38-5.51,2.75-8.26,4.12-9.16,3.3-23.74,8.61-33.25,11.94,5.79-.98,16.63-3.96,22.43-4.94-4.18,2.05-8.36,4.11-12.54,6.16-1.51.75-18.63,4.19-22.75,6.56.64.43,1.39.71,2.16.8-4.37,2.01-14.32,4.74-14.32,4.74l8.22-9.69,28.45-10.92-29.34,4.85s9.49-6.23,11.49-7.73c-1.36.62-7.66,2.48-9.15,2.56,1.94-1.16,7.57-7.36,10.09-12.24l-22.2-.05-60.13,110.23c-4.36-8.61-11.25-13.97-19.86-17.6,18.28-6.63,30.16-20.92,30.21-42.64.05-27.15-22.11-49.42-69.26-49.53l-119.72-.26-.34,151.4v2.21c-.67-.55-1.34-1.06-2.01-1.54-4.01-2.85-7.86-4.76-7.86-11.32l.03-3.91c.05-25.92-9.79-37.79-25.08-44.25,18.28-6.63,30.17-20.92,30.21-42.64.06-27.16-22.11-49.42-69.26-49.53l-119.73-.26-.13,60.56-.05,22.74-3.31-22.74-8.83-60.71-95.78-.22-56.82,104.16.07-33.05-97.02-.21-.09,43.2,24.19.05v.99c-.01,5.43-3.25,18.5-22.01,18.46-20.49-.05-27.85-21.79-27.79-48.94.05-23.2,4.79-47.14,26.27-47.09,13.33.03,18.25,6.46,20.7,16.09l75.78.17c-6.34-36.55-43.56-58.6-96.14-58.72-78.26-.17-106.5,46.42-106.61,93.57-.11,51.83,32.4,88.94,91.15,89.07,31.1.07,46.42-6.31,58.05-19.62.97,5.93,2.2,11.61,3.91,15.32l11.72.02h0s-.06.11-.06.11l74.3.16,12.9-26.14,54.55.12,2.16,26.17,55.13.12h3.36v.13l73.81.17.13-61.47,14.81.03c17.53.04,21.72,3.75,21.68,20.53v6.18c-.05,15.55.91,28.14,3.61,34.81l77.98.15h8.87c0-.18.01-.36.02-.55l66.94.15.13-61.46,14.81.03c17.53.04,21.71,3.75,21.68,20.54l-.02,6.17c-.03,15.56.93,26.71,3.63,33.38l30.8.07-.37.68-.02.04,74.31.16,12.89-26.14,27.13.06c0-9.84.35-16.12.54-25.64.75,3.32,3.19,10.02,3.19,10.02l-1.04,4.78,1.4-1.28s-1.5,8.08-2.79,12.12l26.11.06,2.17,26.17h7.29s.82.01.82.01c-.83-17.26,1.42-37.95,1.42-37.95ZM375.17,304.79c7.2-16.28,17.62-40.7,23.33-56.48h1.73c.95,16.3,2.38,42.72,3.58,56.54l-28.64-.06ZM564.32,275.7l-21.73-.05.07-28.88,21.23.05c11.6.03,18.99,4.98,18.97,14.6-.02,11.11-9.9,14.3-18.55,14.28ZM758.36,275.53l-21.73-.05.06-28.88,21.23.05c11.6.02,19,4.98,18.98,14.6-.03,11.11-9.91,14.29-18.55,14.27ZM886.74,297.34c-.26-1.97.55-9.11,1.14-10.98.85-2.69,1.45-4.26,3.08-5.34-.26.48-.58,1.96-.83,2.43,1.25-.73,5.51-5.05,6.7-5.9-2.24,3.08-7.41,14.76-10.09,19.78ZM917.56,250.3c.39-.72.78-1.43,1.17-2.14-7.63,5.78-14.01,13.23-18.52,21.67-1.42.62-2.84,1.25-4.26,1.87,1.37.05,2.74.09,4.12.13-3.4,2.46-6.79,4.92-10.19,7.38,1.79-7.09,4.24-14.42,6.69-21.73-.52.48-1.03.96-1.56,1.44l6.91-15.61c.44-1,.89-2.04.86-3.14,7.55-2.79,15.21-5.31,22.94-7.57-.54.81-1.07,1.61-1.61,2.42,2.33-.94,4.67-1.87,7-2.81-6.94,4.66-6.39,4.09-13.03,9.18-.03-.62.25-1.25.72-1.66-3.18,2.1-5.62,6.34-8.56,8.77,8.67-3.15,9.36-2.81,18.03-5.97-3.96,1.98-7.59,4.61-10.71,7.76Z"/>
    <path class="st2" d="M1013.1,309.81l-.06-.41c-4.23-.62-9.68,1.05-9.68,1.05,0,0-10.72,3.62-15.8,6.1,6.04-1.18,12.07-2.36,18.11-3.55-9.73,6.73-19.45,13.48-29.17,20.21l4.03-.77c-3.83,1.54-7.49,3.48-10.92,5.79,4.35-.84,8.58-2.35,12.49-4.45-10.7,12.26-18.57,26.97-22.84,42.67l63.56.15-9.72-66.79Z"/>
  </g>
  <path class="st1" d="M959.11,376.98c.05-.17.09-.35.14-.52h-.17c0,.17.02.34.03.52Z"/>
</svg>